<?xml version="1.0" encoding="UTF-8" standalone="no"?>
<!-- Created with Inkscape (http://www.inkscape.org/) -->

<svg
   xmlns:dc="http://purl.org/dc/elements/1.1/"
   xmlns:cc="http://creativecommons.org/ns#"
   xmlns:rdf="http://www.w3.org/1999/02/22-rdf-syntax-ns#"
   xmlns:svg="http://www.w3.org/2000/svg"
   xmlns="http://www.w3.org/2000/svg"
   xmlns:sodipodi="http://sodipodi.sourceforge.net/DTD/sodipodi-0.dtd"
   xmlns:inkscape="http://www.inkscape.org/namespaces/inkscape"
   width="210mm"
   height="297mm"
   viewBox="0 0 210 297"
   version="1.1"
   id="svg4501"
   inkscape:version="0.92.3 (2405546, 2018-03-11)"
   sodipodi:docname="single-spring-4.svg">
  <defs
     id="defs4495">
    <marker
       inkscape:stockid="Arrow1Lstart"
       orient="auto"
       refY="0"
       refX="0"
       id="Arrow1Lstart"
       style="overflow:visible"
       inkscape:isstock="true">
      <path
         inkscape:connector-curvature="0"
         id="path854"
         d="M 0,0 5,-5 -12.5,0 5,5 Z"
         style="fill:#000000;fill-opacity:1;fill-rule:evenodd;stroke:#000000;stroke-width:1.00000003pt;stroke-opacity:1"
         transform="matrix(0.8,0,0,0.8,10,0)" />
    </marker>
    <marker
       inkscape:isstock="true"
       style="overflow:visible"
       id="marker2589"
       refX="0"
       refY="0"
       orient="auto"
       inkscape:stockid="Arrow1Lend">
      <path
         inkscape:connector-curvature="0"
         transform="matrix(-0.8,0,0,-0.8,-10,0)"
         style="fill:#000000;fill-opacity:1;fill-rule:evenodd;stroke:#000000;stroke-width:1.00000003pt;stroke-opacity:1"
         d="M 0,0 5,-5 -12.5,0 5,5 Z"
         id="path2587" />
    </marker>
    <marker
       inkscape:stockid="Arrow1Lstart"
       orient="auto"
       refY="0"
       refX="0"
       id="Arrow1Lstart-7-1"
       style="overflow:visible"
       inkscape:isstock="true">
      <path
         inkscape:connector-curvature="0"
         id="path854-8-5"
         d="M 0,0 5,-5 -12.5,0 5,5 Z"
         style="fill:#000000;fill-opacity:1;fill-rule:evenodd;stroke:#000000;stroke-width:1.00000003pt;stroke-opacity:1"
         transform="matrix(0.8,0,0,0.8,10,0)" />
    </marker>
    <marker
       inkscape:stockid="Arrow1Lend"
       orient="auto"
       refY="0"
       refX="0"
       id="Arrow1Lend-4-9"
       style="overflow:visible"
       inkscape:isstock="true">
      <path
         inkscape:connector-curvature="0"
         id="path857-5-4"
         d="M 0,0 5,-5 -12.5,0 5,5 Z"
         style="fill:#000000;fill-opacity:1;fill-rule:evenodd;stroke:#000000;stroke-width:1.00000003pt;stroke-opacity:1"
         transform="matrix(-0.8,0,0,-0.8,-10,0)" />
    </marker>
    <marker
       inkscape:stockid="Arrow1Lstart"
       orient="auto"
       refY="0"
       refX="0"
       id="Arrow1Lstart-7"
       style="overflow:visible"
       inkscape:isstock="true">
      <path
         inkscape:connector-curvature="0"
         id="path854-8"
         d="M 0,0 5,-5 -12.5,0 5,5 Z"
         style="fill:#000000;fill-opacity:1;fill-rule:evenodd;stroke:#000000;stroke-width:1.00000003pt;stroke-opacity:1"
         transform="matrix(0.8,0,0,0.8,10,0)" />
    </marker>
    <marker
       inkscape:stockid="Arrow1Lend"
       orient="auto"
       refY="0"
       refX="0"
       id="Arrow1Lend-4"
       style="overflow:visible"
       inkscape:isstock="true">
      <path
         inkscape:connector-curvature="0"
         id="path857-5"
         d="M 0,0 5,-5 -12.5,0 5,5 Z"
         style="fill:#000000;fill-opacity:1;fill-rule:evenodd;stroke:#000000;stroke-width:1.00000003pt;stroke-opacity:1"
         transform="matrix(-0.8,0,0,-0.8,-10,0)" />
    </marker>
    <marker
       inkscape:isstock="true"
       style="overflow:visible"
       id="marker2589-0"
       refX="0"
       refY="0"
       orient="auto"
       inkscape:stockid="Arrow1Lend">
      <path
         inkscape:connector-curvature="0"
         transform="matrix(-0.8,0,0,-0.8,-10,0)"
         style="fill:#000000;fill-opacity:1;fill-rule:evenodd;stroke:#000000;stroke-width:1.00000003pt;stroke-opacity:1"
         d="M 0,0 5,-5 -12.5,0 5,5 Z"
         id="path2587-9" />
    </marker>
    <marker
       inkscape:stockid="Arrow1Lstart"
       orient="auto"
       refY="0"
       refX="0"
       id="Arrow1Lstart-7-1-1"
       style="overflow:visible"
       inkscape:isstock="true">
      <path
         inkscape:connector-curvature="0"
         id="path854-8-5-7"
         d="M 0,0 5,-5 -12.5,0 5,5 Z"
         style="fill:#000000;fill-opacity:1;fill-rule:evenodd;stroke:#000000;stroke-width:1.00000003pt;stroke-opacity:1"
         transform="matrix(0.8,0,0,0.8,10,0)" />
    </marker>
    <marker
       inkscape:stockid="Arrow1Lend"
       orient="auto"
       refY="0"
       refX="0"
       id="Arrow1Lend-4-9-7"
       style="overflow:visible"
       inkscape:isstock="true">
      <path
         inkscape:connector-curvature="0"
         id="path857-5-4-1"
         d="M 0,0 5,-5 -12.5,0 5,5 Z"
         style="fill:#000000;fill-opacity:1;fill-rule:evenodd;stroke:#000000;stroke-width:1.00000003pt;stroke-opacity:1"
         transform="matrix(-0.8,0,0,-0.8,-10,0)" />
    </marker>
    <marker
       inkscape:stockid="Arrow1Lstart"
       orient="auto"
       refY="0"
       refX="0"
       id="Arrow1Lstart-7-15"
       style="overflow:visible"
       inkscape:isstock="true">
      <path
         inkscape:connector-curvature="0"
         id="path854-8-9"
         d="M 0,0 5,-5 -12.5,0 5,5 Z"
         style="fill:#000000;fill-opacity:1;fill-rule:evenodd;stroke:#000000;stroke-width:1.00000003pt;stroke-opacity:1"
         transform="matrix(0.8,0,0,0.8,10,0)" />
    </marker>
    <marker
       inkscape:stockid="Arrow1Lend"
       orient="auto"
       refY="0"
       refX="0"
       id="Arrow1Lend-4-7"
       style="overflow:visible"
       inkscape:isstock="true">
      <path
         inkscape:connector-curvature="0"
         id="path857-5-7"
         d="M 0,0 5,-5 -12.5,0 5,5 Z"
         style="fill:#000000;fill-opacity:1;fill-rule:evenodd;stroke:#000000;stroke-width:1.00000003pt;stroke-opacity:1"
         transform="matrix(-0.8,0,0,-0.8,-10,0)" />
    </marker>
    <marker
       inkscape:isstock="true"
       style="overflow:visible"
       id="marker2589-0-3"
       refX="0"
       refY="0"
       orient="auto"
       inkscape:stockid="Arrow1Lend">
      <path
         inkscape:connector-curvature="0"
         transform="matrix(-0.8,0,0,-0.8,-10,0)"
         style="fill:#000000;fill-opacity:1;fill-rule:evenodd;stroke:#000000;stroke-width:1.00000003pt;stroke-opacity:1"
         d="M 0,0 5,-5 -12.5,0 5,5 Z"
         id="path2587-9-3" />
    </marker>
    <marker
       inkscape:stockid="Arrow1Lstart"
       orient="auto"
       refY="0"
       refX="0"
       id="Arrow1Lstart-7-1-1-3"
       style="overflow:visible"
       inkscape:isstock="true">
      <path
         inkscape:connector-curvature="0"
         id="path854-8-5-7-8"
         d="M 0,0 5,-5 -12.5,0 5,5 Z"
         style="fill:#000000;fill-opacity:1;fill-rule:evenodd;stroke:#000000;stroke-width:1.00000003pt;stroke-opacity:1"
         transform="matrix(0.8,0,0,0.8,10,0)" />
    </marker>
    <marker
       inkscape:stockid="Arrow1Lend"
       orient="auto"
       refY="0"
       refX="0"
       id="Arrow1Lend-4-9-7-6"
       style="overflow:visible"
       inkscape:isstock="true">
      <path
         inkscape:connector-curvature="0"
         id="path857-5-4-1-0"
         d="M 0,0 5,-5 -12.5,0 5,5 Z"
         style="fill:#000000;fill-opacity:1;fill-rule:evenodd;stroke:#000000;stroke-width:1.00000003pt;stroke-opacity:1"
         transform="matrix(-0.8,0,0,-0.8,-10,0)" />
    </marker>
    <marker
       inkscape:stockid="Arrow1Lstart"
       orient="auto"
       refY="0"
       refX="0"
       id="Arrow1Lstart-7-15-4"
       style="overflow:visible"
       inkscape:isstock="true">
      <path
         inkscape:connector-curvature="0"
         id="path854-8-9-8"
         d="M 0,0 5,-5 -12.5,0 5,5 Z"
         style="fill:#000000;fill-opacity:1;fill-rule:evenodd;stroke:#000000;stroke-width:1.00000003pt;stroke-opacity:1"
         transform="matrix(0.8,0,0,0.8,10,0)" />
    </marker>
    <marker
       inkscape:stockid="Arrow1Lend"
       orient="auto"
       refY="0"
       refX="0"
       id="Arrow1Lend-4-7-8"
       style="overflow:visible"
       inkscape:isstock="true">
      <path
         inkscape:connector-curvature="0"
         id="path857-5-7-8"
         d="M 0,0 5,-5 -12.5,0 5,5 Z"
         style="fill:#000000;fill-opacity:1;fill-rule:evenodd;stroke:#000000;stroke-width:1.00000003pt;stroke-opacity:1"
         transform="matrix(-0.8,0,0,-0.8,-10,0)" />
    </marker>
    <marker
       inkscape:stockid="ExperimentalArrow"
       orient="auto-start-reverse"
       refY="3"
       refX="5"
       id="ExperimentalArrow"
       inkscape:isstock="true">
      <path
         inkscape:connector-curvature="0"
         id="path3228"
         d="M 10,3 0,6 V 0 Z"
         style="fill:context-stroke;stroke:#000000;stroke-opacity:1" />
    </marker>
  </defs>
  <sodipodi:namedview
     id="base"
     pagecolor="#ffffff"
     bordercolor="#666666"
     borderopacity="1.0"
     inkscape:pageopacity="0.0"
     inkscape:pageshadow="2"
     inkscape:zoom="3.959798"
     inkscape:cx="507.01759"
     inkscape:cy="770.41676"
     inkscape:document-units="mm"
     inkscape:current-layer="layer1"
     showgrid="false"
     inkscape:window-width="1855"
     inkscape:window-height="1056"
     inkscape:window-x="65"
     inkscape:window-y="24"
     inkscape:window-maximized="1" />
  <metadata
     id="metadata4498">
    <rdf:RDF>
      <cc:Work
         rdf:about="">
        <dc:format>image/svg+xml</dc:format>
        <dc:type
           rdf:resource="http://purl.org/dc/dcmitype/StillImage" />
        <dc:title />
      </cc:Work>
    </rdf:RDF>
  </metadata>
  <g
     inkscape:label="Layer 1"
     inkscape:groupmode="layer"
     id="layer1">
    <path
       style="fill:none;stroke:#000000;stroke-width:0.26458332px;stroke-linecap:butt;stroke-linejoin:miter;stroke-opacity:1"
       d="M 74.131397,65.410568 V 104.16464"
       id="path815-0-6-9"
       inkscape:connector-curvature="0" />
    <path
       style="fill:none;stroke:#000000;stroke-width:0.26458332px;stroke-linecap:butt;stroke-linejoin:miter;stroke-opacity:1"
       d="m 74.532297,93.874769 h 16.11071 l 4.610398,-4.610402 4.29732,7.443182 6.584225,-6.584231 2.83372,4.90813 h 40.58979"
       id="path817-3-7-7"
       inkscape:connector-curvature="0"
       sodipodi:nodetypes="ccccccc" />
    <circle
       style="fill:#000000;fill-opacity:1;stroke:#000000;stroke-width:0.26499999;stroke-miterlimit:4;stroke-dasharray:none;stroke-opacity:1"
       id="path825-6-3-7"
       cx="149.63956"
       cy="75.366333"
       r="1.3363476" />
    <path
       style="fill:none;stroke:#000000;stroke-width:0.26458332px;stroke-linecap:butt;stroke-linejoin:miter;stroke-opacity:1"
       d="m 121.50469,64.129518 15.47872,-8.936641"
       id="path827-1-6-6"
       inkscape:connector-curvature="0"
       sodipodi:nodetypes="cc" />
    <path
       style="fill:none;fill-opacity:1;stroke:#000000;stroke-width:0.31971204;stroke-miterlimit:4;stroke-dasharray:none;stroke-opacity:1"
       id="path831-0-5-4"
       sodipodi:type="arc"
       sodipodi:cx="-70.85025"
       sodipodi:cy="-116.44413"
       sodipodi:rx="2.3780692"
       sodipodi:ry="2.3780692"
       sodipodi:start="0.0037068311"
       sodipodi:end="3.1330185"
       d="m -68.472197,-116.43531 a 2.3780692,2.3780692 0 0 1 -2.372266,2.36924 2.3780692,2.3780692 0 0 1 -2.383769,-2.35767"
       sodipodi:open="true"
       transform="rotate(150)" />
    <circle
       style="fill:#000000;fill-opacity:1;stroke:#000000;stroke-width:0.26499999;stroke-miterlimit:4;stroke-dasharray:none;stroke-opacity:1"
       id="path825-3-6-6-3"
       cx="149.63593"
       cy="95.119736"
       r="1.3363476" />
    <path
       style="fill:none;stroke:#000000;stroke-width:0.26458332;stroke-linecap:butt;stroke-linejoin:miter;stroke-miterlimit:4;stroke-dasharray:0.26458332, 0.26458332;stroke-dashoffset:0;stroke-opacity:1"
       d="M 115.6918,95.031448 V 116.38091"
       id="path848-3-3-0"
       inkscape:connector-curvature="0" />
    <path
       style="fill:none;stroke:#000000;stroke-width:0.26458332;stroke-linecap:butt;stroke-linejoin:miter;stroke-miterlimit:4;stroke-dasharray:0.26458332, 0.26458332;stroke-dashoffset:0;stroke-opacity:1"
       d="M 136.93973,75.499988 V 118.36529"
       id="path850-2-9-3"
       inkscape:connector-curvature="0" />
    <path
       style="fill:none;stroke:#000000;stroke-width:0.26499999;stroke-linecap:butt;stroke-linejoin:miter;stroke-miterlimit:4;stroke-dasharray:none;stroke-opacity:1;marker-start:url(#Arrow1Lstart-7-15-4);marker-end:url(#Arrow1Lend-4-7-8)"
       d="m 115.95848,113.16811 h 21.26116"
       id="path852-0-4-0"
       inkscape:connector-curvature="0" />
    <g
       transform="matrix(0.03527778,0,0,-0.03527778,124.37865,117.34441)"
       id="g1178-6-8-9">
      <path
         inkscape:connector-curvature="0"
         id="path1180-1-1-2"
         style="fill:#000000;fill-opacity:1;fill-rule:nonzero;stroke:none"
         d="m 12,51.5469 c 3.2813,-1.3906 6.1719,-1.3906 8.5469,-1.3906 2.5781,0 8.0469,0 8.0469,3.0781 0,2.3906 -3.4688,2.6875 -7.25,2.6875 -2.0782,0 -5.5625,-0.2031 -9.2344,-1.8906 -2.28127,1.1875 -3.9844,3.0781 -3.9844,5.7656 0,6.0625 9.75,9.6406 18.6875,9.6406 1.5781,0 5.1563,0 9.1406,-2.7812 1.0938,-0.7969 1.2813,-1 1.9844,-1 1.2813,0 2.6719,1.2968 2.6719,2.6875 C 40.6094,70.2188 34.5625,74 27.7969,74 16.375,74 5.65625,67.3438 5.65625,59.7969 c 0,-4.2813 3.5625,-6.75 3.96875,-7.0625 C 3.76563,49.4688 0.578125,43.9063 0.578125,39.3281 0.578125,32.875 6.25,26.8125 16.7813,26.8125 c 13.1093,0 18.6718,8.75 18.6718,10.2344 0,0.5937 -0.5,1 -1.0937,1 -0.5,0 -0.7969,-0.4063 -1,-0.7031 -1.3906,-2.2813 -3.7656,-5.9532 -15.6875,-5.9532 -6.0625,0 -14.50002,1.4844 -14.50002,8.5313 0,3.375 2.78125,8.6406 8.82812,11.625 z m 3.2813,1.2969 c 2.2812,0.7968 4.375,0.8906 6.0625,0.8906 2.4843,0 2.875,-0.0938 4.6718,-0.5938 -1.5,-0.7031 -1.6875,-0.7968 -5.4687,-0.7968 -2.1875,0 -3.375,0 -5.2656,0.5" />
      <path
         inkscape:connector-curvature="0"
         id="path1182-5-2-5"
         style="fill:#000000;fill-opacity:1;fill-rule:nonzero;stroke:none"
         d="m 50.2656,5.42188 c -0.4843,-1.96875 -0.625,-2.53125 -3.4375,-2.53125 -0.9218,0 -1.8906,0 -1.8906,-1.46875 0,-0.781255 0.625,-1.062505 0.9688,-1.062505 1.8281,0 4.1562,0.28125 6.0468,0.28125 2.3907,0 5.0625,-0.28125 7.3907,-0.28125 0.625,0 1.4062,0.21875 1.4062,1.546875 0,0.98438 -0.9844,0.98438 -1.8281,0.98438 -1.5469,0 -3.4531,0 -3.4531,0.84375 0,0.35937 0.5,2.1875 0.7812,3.23437 0.8438,3.73435 1.8281,7.51565 2.5938,10.46875 0.8437,-1.4062 3.0312,-4.1406 7.25,-4.1406 8.5781,0 18.0625,9.4844 18.0625,19.9687 C 84.1563,41.4844 78.4688,45 73.6094,45 69.25,45 65.5313,42.0469 63.625,40.0781 62.4375,44.0938 58.5,45 56.3906,45 c -2.75,0 -4.4375,-1.8281 -5.5625,-3.7187 -1.4062,-2.3907 -2.5312,-6.6094 -2.5312,-7.0313 0,-0.9219 0.9844,-0.9219 1.2031,-0.9219 0.9844,0 1.0469,0.2188 1.5469,2.1094 1.0469,4.0781 2.3906,7.5938 5.125,7.5938 1.8281,0 2.3281,-1.5469 2.3281,-3.4375 0,-0.7813 -0.1406,-1.6875 -0.2187,-2.1094 z M 63.5625,36.5625 c 4.0781,5.4219 7.5938,6.4688 9.8438,6.4688 2.7343,0 5.125,-2.0313 5.125,-6.8125 0,-2.8907 -1.5469,-10.0625 -3.6563,-14.1407 -1.75,-3.4375 -5.2031,-6.8125 -8.7812,-6.8125 -5,0 -6.2657,5.4063 -6.2657,6.1094 0,0.2813 0.1407,0.7813 0.2188,1.0625 l 3.5156,14.125" />
      <path
         inkscape:connector-curvature="0"
         id="path1184-5-9-4"
         style="fill:#000000;fill-opacity:1;fill-rule:nonzero;stroke:none"
         d="m 113.609,41.7656 h 6.891 c 1.406,0 2.328,0 2.328,1.5469 0,0.9844 -0.922,0.9844 -2.187,0.9844 h -6.532 c 1.61,8.9375 2.172,12.1719 2.735,14.2031 0.359,1.5469 1.906,3.0156 3.594,3.0156 0.062,0 1.968,0 3.296,-0.8437 -2.875,-0.9063 -3.093,-3.4375 -3.093,-3.8594 0,-1.5469 1.203,-2.5937 2.812,-2.5937 1.906,0 4.016,1.6093 4.016,4.2812 0,3.2344 -3.453,4.9844 -7.031,4.9844 -3.094,0 -6.547,-1.75 -8.438,-5.2656 -1.406,-2.5938 -1.969,-5.7657 -3.453,-13.9219 H 103 c -1.406,0 -2.328,0 -2.328,-1.5469 0,-0.9844 0.922,-0.9844 2.187,-0.9844 h 5.204 C 107.984,41.3438 103.563,16.0313 101.875,8.51563 101.516,6.96875 100.328,1.625 96.9531,1.625 c -0.0781,0 -1.7656,0 -3.0937,0.84375 2.875,0.92188 3.0937,3.45313 3.0937,3.875 0,1.54688 -1.2031,2.59375 -2.8125,2.59375 -1.9062,0 -4.0156,-1.60937 -4.0156,-4.28125 0,-3.17187 3.3125,-5 6.8281,-5 4.4999,0 7.5939,4.64063 8.4379,6.1875 2.531,4.71875 4.14,13.35935 4.281,14.20315 l 3.937,21.7187" />
    </g>
    <path
       style="fill:none;stroke:#000000;stroke-width:0.26458332px;stroke-linecap:butt;stroke-linejoin:miter;stroke-opacity:1"
       d="m 74.131397,65.410568 -2.30368,1.33003"
       id="path1191-4-3-0"
       inkscape:connector-curvature="0" />
    <path
       style="fill:none;stroke:#000000;stroke-width:0.26458332px;stroke-linecap:butt;stroke-linejoin:miter;stroke-opacity:1"
       d="m 74.113937,67.351428 -2.30368,1.33003"
       id="path1191-6-7-9-5"
       inkscape:connector-curvature="0" />
    <path
       style="fill:none;stroke:#000000;stroke-width:0.26458332px;stroke-linecap:butt;stroke-linejoin:miter;stroke-opacity:1"
       d="m 74.189477,69.755278 -2.30367,1.33003"
       id="path1191-7-6-0-9"
       inkscape:connector-curvature="0" />
    <path
       style="fill:none;stroke:#000000;stroke-width:0.26458332px;stroke-linecap:butt;stroke-linejoin:miter;stroke-opacity:1"
       d="m 74.172017,71.696138 -2.30368,1.33003"
       id="path1191-6-5-5-8-4"
       inkscape:connector-curvature="0" />
    <path
       style="fill:none;stroke:#000000;stroke-width:0.26458332px;stroke-linecap:butt;stroke-linejoin:miter;stroke-opacity:1"
       d="m 74.122667,74.298858 -2.30368,1.33003"
       id="path1191-3-6-8-6"
       inkscape:connector-curvature="0" />
    <path
       style="fill:none;stroke:#000000;stroke-width:0.26458332px;stroke-linecap:butt;stroke-linejoin:miter;stroke-opacity:1"
       d="m 74.105197,76.239718 -2.30368,1.33003"
       id="path1191-6-56-9-5-9"
       inkscape:connector-curvature="0" />
    <path
       style="fill:none;stroke:#000000;stroke-width:0.26458332px;stroke-linecap:butt;stroke-linejoin:miter;stroke-opacity:1"
       d="m 74.122667,77.906988 -2.30368,1.33003"
       id="path1191-2-3-0-2"
       inkscape:connector-curvature="0" />
    <path
       style="fill:none;stroke:#000000;stroke-width:0.26458332px;stroke-linecap:butt;stroke-linejoin:miter;stroke-opacity:1"
       d="m 74.105197,79.847857 -2.30368,1.330031"
       id="path1191-6-9-7-9-2"
       inkscape:connector-curvature="0" />
    <path
       style="fill:none;stroke:#000000;stroke-width:0.26458332px;stroke-linecap:butt;stroke-linejoin:miter;stroke-opacity:1"
       d="m 74.031167,81.982057 -2.30368,1.330032"
       id="path1191-1-4-6-4"
       inkscape:connector-curvature="0" />
    <path
       style="fill:none;stroke:#000000;stroke-width:0.26458332px;stroke-linecap:butt;stroke-linejoin:miter;stroke-opacity:1"
       d="m 74.013707,83.922927 -2.30368,1.330031"
       id="path1191-6-2-5-3-7"
       inkscape:connector-curvature="0" />
    <path
       style="fill:none;stroke:#000000;stroke-width:0.26458332px;stroke-linecap:butt;stroke-linejoin:miter;stroke-opacity:1"
       d="m 74.089257,86.326767 -2.30368,1.330031"
       id="path1191-7-7-2-8-7"
       inkscape:connector-curvature="0" />
    <path
       style="fill:none;stroke:#000000;stroke-width:0.26458332px;stroke-linecap:butt;stroke-linejoin:miter;stroke-opacity:1"
       d="m 74.071787,88.267639 -2.30367,1.330029"
       id="path1191-6-5-0-5-5-5"
       inkscape:connector-curvature="0" />
    <path
       style="fill:none;stroke:#000000;stroke-width:0.26458332px;stroke-linecap:butt;stroke-linejoin:miter;stroke-opacity:1"
       d="m 74.022437,90.870359 -2.30368,1.330021"
       id="path1191-3-9-4-6-4"
       inkscape:connector-curvature="0" />
    <path
       style="fill:none;stroke:#000000;stroke-width:0.26458332px;stroke-linecap:butt;stroke-linejoin:miter;stroke-opacity:1"
       d="m 74.004977,92.811218 -2.30368,1.330031"
       id="path1191-6-56-3-7-1-8"
       inkscape:connector-curvature="0" />
    <path
       style="fill:none;stroke:#000000;stroke-width:0.26458332px;stroke-linecap:butt;stroke-linejoin:miter;stroke-opacity:1"
       d="m 74.022437,94.478498 -2.30368,1.33002"
       id="path1191-2-6-4-1-1"
       inkscape:connector-curvature="0" />
    <path
       style="fill:none;stroke:#000000;stroke-width:0.26458332px;stroke-linecap:butt;stroke-linejoin:miter;stroke-opacity:1"
       d="m 74.004977,96.419359 -2.30368,1.330027"
       id="path1191-6-9-0-4-5-2"
       inkscape:connector-curvature="0" />
    <path
       style="fill:none;stroke:#000000;stroke-width:0.26458332px;stroke-linecap:butt;stroke-linejoin:miter;stroke-opacity:1"
       d="m 74.189477,98.820826 -2.30367,1.330034"
       id="path1191-2-6-6-30-9-8"
       inkscape:connector-curvature="0" />
    <path
       style="fill:none;stroke:#000000;stroke-width:0.26458332px;stroke-linecap:butt;stroke-linejoin:miter;stroke-opacity:1"
       d="m 74.172017,100.7617 -2.30368,1.33003"
       id="path1191-6-9-0-2-7-8-9"
       inkscape:connector-curvature="0" />
    <path
       style="fill:none;stroke:#000000;stroke-width:0.26458332px;stroke-linecap:butt;stroke-linejoin:miter;stroke-opacity:1"
       d="m 74.148857,102.22378 -2.30368,1.33003"
       id="path1191-2-6-61-8-4-3"
       inkscape:connector-curvature="0" />
    <path
       style="fill:none;stroke:#000000;stroke-width:0.26458332px;stroke-linecap:butt;stroke-linejoin:miter;stroke-opacity:1"
       d="m 74.131397,104.16464 -2.30368,1.33004"
       id="path1191-6-9-0-8-6-8-6"
       inkscape:connector-curvature="0" />
    <path
       style="fill:none;stroke:#000000;stroke-width:0.26458332px;stroke-linecap:butt;stroke-linejoin:miter;stroke-opacity:1"
       d="M 155.49576,55.310567 H 116.74169"
       id="path815-7-8-1-8"
       inkscape:connector-curvature="0" />
    <path
       style="fill:none;stroke:#000000;stroke-width:0.26458332px;stroke-linecap:butt;stroke-linejoin:miter;stroke-opacity:1"
       d="m 155.49576,55.310567 -1.33002,-2.30368"
       id="path1191-9-8-0-0"
       inkscape:connector-curvature="0" />
    <path
       style="fill:none;stroke:#000000;stroke-width:0.26458332px;stroke-linecap:butt;stroke-linejoin:miter;stroke-opacity:1"
       d="m 153.55491,55.293107 -1.33004,-2.30368"
       id="path1191-6-20-4-3-2"
       inkscape:connector-curvature="0" />
    <path
       style="fill:none;stroke:#000000;stroke-width:0.26458332px;stroke-linecap:butt;stroke-linejoin:miter;stroke-opacity:1"
       d="m 151.15105,55.368647 -1.33003,-2.30368"
       id="path1191-7-2-3-0-1"
       inkscape:connector-curvature="0" />
    <path
       style="fill:none;stroke:#000000;stroke-width:0.26458332px;stroke-linecap:butt;stroke-linejoin:miter;stroke-opacity:1"
       d="m 149.2102,55.351187 -1.33004,-2.30368"
       id="path1191-6-5-3-1-4-0"
       inkscape:connector-curvature="0" />
    <path
       style="fill:none;stroke:#000000;stroke-width:0.26458332px;stroke-linecap:butt;stroke-linejoin:miter;stroke-opacity:1"
       d="m 146.60747,55.301837 -1.33002,-2.30368"
       id="path1191-3-7-4-4-5"
       inkscape:connector-curvature="0" />
    <path
       style="fill:none;stroke:#000000;stroke-width:0.26458332px;stroke-linecap:butt;stroke-linejoin:miter;stroke-opacity:1"
       d="m 144.66661,55.284367 -1.33003,-2.30368"
       id="path1191-6-56-5-9-4-1"
       inkscape:connector-curvature="0" />
    <path
       style="fill:none;stroke:#000000;stroke-width:0.26458332px;stroke-linecap:butt;stroke-linejoin:miter;stroke-opacity:1"
       d="m 142.99934,55.301837 -1.33003,-2.30368"
       id="path1191-2-9-2-4-1"
       inkscape:connector-curvature="0" />
    <path
       style="fill:none;stroke:#000000;stroke-width:0.26458332px;stroke-linecap:butt;stroke-linejoin:miter;stroke-opacity:1"
       d="m 141.05847,55.284367 -1.33003,-2.30368"
       id="path1191-6-9-2-0-7-0"
       inkscape:connector-curvature="0" />
    <path
       style="fill:none;stroke:#000000;stroke-width:0.26458332px;stroke-linecap:butt;stroke-linejoin:miter;stroke-opacity:1"
       d="m 138.92427,55.210337 -1.33003,-2.30368"
       id="path1191-1-2-6-6-8"
       inkscape:connector-curvature="0" />
    <path
       style="fill:none;stroke:#000000;stroke-width:0.26458332px;stroke-linecap:butt;stroke-linejoin:miter;stroke-opacity:1"
       d="m 136.98341,55.192877 -1.33004,-2.30368"
       id="path1191-6-2-8-8-3-5"
       inkscape:connector-curvature="0" />
    <path
       style="fill:none;stroke:#000000;stroke-width:0.26458332px;stroke-linecap:butt;stroke-linejoin:miter;stroke-opacity:1"
       d="m 134.57956,55.268427 -1.33003,-2.30368"
       id="path1191-7-7-9-9-1-0"
       inkscape:connector-curvature="0" />
    <path
       style="fill:none;stroke:#000000;stroke-width:0.26458332px;stroke-linecap:butt;stroke-linejoin:miter;stroke-opacity:1"
       d="m 132.6387,55.250957 -1.33004,-2.30368"
       id="path1191-6-5-0-7-2-7-6"
       inkscape:connector-curvature="0" />
    <path
       style="fill:none;stroke:#000000;stroke-width:0.26458332px;stroke-linecap:butt;stroke-linejoin:miter;stroke-opacity:1"
       d="m 130.03598,55.201607 -1.33003,-2.30368"
       id="path1191-3-9-3-6-5-4"
       inkscape:connector-curvature="0" />
    <path
       style="fill:none;stroke:#000000;stroke-width:0.26458332px;stroke-linecap:butt;stroke-linejoin:miter;stroke-opacity:1"
       d="m 128.09511,55.184147 -1.33003,-2.30368"
       id="path1191-6-56-3-6-6-9-6"
       inkscape:connector-curvature="0" />
    <path
       style="fill:none;stroke:#000000;stroke-width:0.26458332px;stroke-linecap:butt;stroke-linejoin:miter;stroke-opacity:1"
       d="m 126.42784,55.201607 -1.33003,-2.30368"
       id="path1191-2-6-1-4-6-2"
       inkscape:connector-curvature="0" />
    <path
       style="fill:none;stroke:#000000;stroke-width:0.26458332px;stroke-linecap:butt;stroke-linejoin:miter;stroke-opacity:1"
       d="m 124.48698,55.184147 -1.33003,-2.30368"
       id="path1191-6-9-0-29-9-2-5"
       inkscape:connector-curvature="0" />
    <path
       style="fill:none;stroke:#000000;stroke-width:0.26458332px;stroke-linecap:butt;stroke-linejoin:miter;stroke-opacity:1"
       d="m 122.0855,55.368647 -1.33003,-2.30368"
       id="path1191-2-6-6-3-5-1-8"
       inkscape:connector-curvature="0" />
    <path
       style="fill:none;stroke:#000000;stroke-width:0.26458332px;stroke-linecap:butt;stroke-linejoin:miter;stroke-opacity:1"
       d="m 120.14464,55.351187 -1.33003,-2.30368"
       id="path1191-6-9-0-2-1-0-7-6"
       inkscape:connector-curvature="0" />
    <path
       style="fill:none;stroke:#000000;stroke-width:0.26458332px;stroke-linecap:butt;stroke-linejoin:miter;stroke-opacity:1"
       d="m 118.68255,55.328027 -1.33003,-2.30368"
       id="path1191-2-6-61-9-4-8-2"
       inkscape:connector-curvature="0" />
    <path
       style="fill:none;stroke:#000000;stroke-width:0.26458332px;stroke-linecap:butt;stroke-linejoin:miter;stroke-opacity:1"
       d="m 116.74169,55.310567 -1.33003,-2.30368"
       id="path1191-6-9-0-8-4-8-5-8"
       inkscape:connector-curvature="0" />
    <path
       style="fill:none;stroke:#000000;stroke-width:0.26458332px;stroke-linecap:butt;stroke-linejoin:miter;stroke-opacity:1"
       d="m 149.63973,75.499988 h -43.436 l -4.14267,-7.01582 -6.083715,10.53731 -5.792728,-10.03329 -3.41668,5.91787 h -12.63654"
       id="path1388-7-7-4"
       inkscape:connector-curvature="0"
       sodipodi:nodetypes="ccccccc" />
    <g
       transform="matrix(0.03527778,0,0,-0.03527778,92.646645,103.06921)"
       id="g1402-1-4-7">
      <path
         inkscape:connector-curvature="0"
         id="path1404-7-1-2"
         style="fill:#000000;fill-opacity:1;fill-rule:nonzero;stroke:none"
         d="m 66.3281,38.1406 c 0.2032,0.5 0.5,1.2032 0.5,1.3907 0,0.1093 0,1.0937 -1.1875,1.0937 -0.9062,0 -1.0937,-0.5937 -1.2968,-1.1875 C 57.8906,24.7344 54.2188,18.0781 37.2188,18.0781 h -14.5 c -1.3907,0 -1.5938,0 -2.1875,0.0938 -0.9844,0.1094 -1.2813,0.2031 -1.2813,1 0,0.2969 0,0.5 0.4844,2.2812 L 26.5,48.5781 h 9.8281 c 8.4532,0 8.4532,-2.0937 8.4532,-4.5781 0,-0.6875 0,-1.875 -0.7032,-4.8594 -0.2031,-0.5 -0.2968,-0.7968 -0.2968,-1.0937 0,-0.5 0.3906,-1.0938 1.2968,-1.0938 0.7969,0 1.0938,0.5 1.4844,1.9844 l 5.6563,23.25 c 0,0.5938 -0.4844,1.0938 -1.1875,1.0938 -0.8907,0 -1.0938,-0.5938 -1.3907,-1.7969 -2.0781,-7.5469 -3.875,-9.8281 -13.0156,-9.8281 H 27.2969 L 33.25,75.5938 c 0.8906,3.4843 1,3.875 5.3594,3.875 H 52.625 c 12.1094,0 15.0938,-2.875 15.0938,-11.0313 0,-2.375 0,-2.5781 -0.3907,-5.2656 0,-0.5938 -0.1093,-1.2813 -0.1093,-1.7813 0,-0.5 0.2968,-1.1875 1.2031,-1.1875 1.0937,0 1.1875,0.5938 1.3906,2.4844 l 1.9844,17.1719 c 0.2969,2.6875 -0.2031,2.6875 -2.6875,2.6875 H 18.9531 c -2,0 -2.9843,0 -2.9843,-1.9844 0,-1.0937 0.8906,-1.0937 2.7812,-1.0937 3.6719,0 6.4531,0 6.4531,-1.7813 0,-0.4062 0,-0.6094 -0.5,-2.3906 L 11.5938,22.75 c -0.9844,-3.875 -1.1875,-4.6719 -9.0313,-4.6719 -1.6875,0 -2.78125,0 -2.78125,-1.8906 C -0.21875,15 0.671875,15 2.5625,15 h 51.5469 c 2.2812,0 2.3906,0.0938 3.0781,1.6875 l 9.1406,21.4531" />
      <path
         inkscape:connector-curvature="0"
         id="path1406-2-8-4"
         style="fill:#000000;fill-opacity:1;fill-rule:nonzero;stroke:none"
         d="m 87.5625,46.6719 c 0.0625,0.1406 0.2813,1.0625 0.2813,1.125 0,0.3594 -0.2813,0.9844 -1.125,0.9844 -1.4063,0 -7.25,-0.5625 -9,-0.7032 -0.5625,-0.0625 -1.5469,-0.1406 -1.5469,-1.6093 0,-0.9844 0.9844,-0.9844 1.8281,-0.9844 3.375,0 3.375,-0.5 3.375,-1.0625 0,-0.4844 -0.7031,-3.2969 -1.125,-4.9063 L 78.625,33.0469 C 78,30.6563 74.125,15.25 73.9844,14.3438 c -0.3438,-1.6875 -0.3438,-2.6094 -0.3438,-3.4532 0,-7.09372 4.5,-11.593725 10.3282,-11.593725 8.7968,0 18.1402,9.562505 18.1402,19.968725 0,8.2188 -5.6871,11.7344 -10.5465,11.7344 -3.6562,0 -6.75,-2.0312 -8.8594,-3.8594 z M 84.0469,1.26563 c -3.4531,0 -5.4219,3.01562 -5.4219,7.17187 0,2.5938 0.6406,4.9844 2.6094,12.9375 0.4219,1.3281 0.4219,1.4688 1.75,3.0156 2.6719,3.0938 5.8437,4.6407 8.375,4.6407 2.7344,0 5.125,-2.0313 5.125,-6.8125 0,-2.8907 -1.5469,-10.0625 -3.6563,-14.14067 -1.6875,-3.4375 -5.2031,-6.8125 -8.7812,-6.8125" />
    </g>
    <g
       transform="matrix(0.03527778,0,0,-0.03527778,94.262135,66.973847)"
       id="g1441-7-5-0">
      <path
         inkscape:connector-curvature="0"
         id="path1443-2-9-6"
         style="fill:#000000;fill-opacity:1;fill-rule:nonzero;stroke:none"
         d="m 67.3281,52.1406 c 0.2032,0.5 0.5,1.2032 0.5,1.3907 0,0.1093 0,1.0937 -1.1875,1.0937 -0.9062,0 -1.0937,-0.5937 -1.2968,-1.1875 C 58.8906,38.7344 55.2188,32.0781 38.2188,32.0781 h -14.5 c -1.3907,0 -1.5938,0 -2.1875,0.0938 -0.9844,0.1094 -1.2813,0.2031 -1.2813,1 0,0.2969 0,0.5 0.4844,2.2812 L 27.5,62.5781 h 9.8281 c 8.4532,0 8.4532,-2.0937 8.4532,-4.5781 0,-0.6875 0,-1.875 -0.7032,-4.8594 -0.2031,-0.5 -0.2968,-0.7968 -0.2968,-1.0937 0,-0.5 0.3906,-1.0938 1.2968,-1.0938 0.7969,0 1.0938,0.5 1.4844,1.9844 l 5.6563,23.25 c 0,0.5938 -0.4844,1.0938 -1.1875,1.0938 -0.8907,0 -1.0938,-0.5938 -1.3907,-1.7969 -2.0781,-7.5469 -3.875,-9.8281 -13.0156,-9.8281 H 28.2969 L 34.25,89.5938 c 0.8906,3.4843 1,3.875 5.3594,3.875 H 53.625 c 12.1094,0 15.0938,-2.875 15.0938,-11.0313 0,-2.375 0,-2.5781 -0.3907,-5.2656 0,-0.5938 -0.1093,-1.2813 -0.1093,-1.7813 0,-0.5 0.2968,-1.1875 1.2031,-1.1875 1.0937,0 1.1875,0.5938 1.3906,2.4844 l 1.9844,17.1719 c 0.2969,2.6875 -0.2031,2.6875 -2.6875,2.6875 H 19.9531 c -2,0 -2.9843,0 -2.9843,-1.9844 0,-1.0937 0.8906,-1.0937 2.7812,-1.0937 3.6719,0 6.4531,0 6.4531,-1.7813 0,-0.4062 0,-0.6094 -0.5,-2.3906 L 12.5938,36.75 c -0.9844,-3.875 -1.1875,-4.6719 -9.0313,-4.6719 -1.6875,0 -2.78125,0 -2.78125,-1.8906 C 0.78125,29 1.67188,29 3.5625,29 h 51.5469 c 2.2812,0 2.3906,0.0938 3.0781,1.6875 l 9.1406,21.4531" />
      <path
         inkscape:connector-curvature="0"
         id="path1445-2-7-2"
         style="fill:#000000;fill-opacity:1;fill-rule:nonzero;stroke:none"
         d="m 75.2656,5.42188 c -0.4843,-1.96875 -0.625,-2.53125 -3.4375,-2.53125 -0.9218,0 -1.8906,0 -1.8906,-1.46875 0,-0.781255 0.625,-1.062505 0.9688,-1.062505 1.8281,0 4.1562,0.28125 6.0468,0.28125 2.3907,0 5.0625,-0.28125 7.3907,-0.28125 0.625,0 1.4062,0.21875 1.4062,1.546875 0,0.98438 -0.9844,0.98438 -1.8281,0.98438 -1.5469,0 -3.4531,0 -3.4531,0.84375 0,0.35937 0.5,2.1875 0.7812,3.23437 0.8438,3.73435 1.8281,7.51565 2.5938,10.46875 0.8437,-1.4062 3.0312,-4.1406 7.25,-4.1406 8.5781,0 18.0622,9.4844 18.0622,19.9687 C 109.156,41.4844 103.469,45 98.6094,45 94.25,45 90.5313,42.0469 88.625,40.0781 87.4375,44.0938 83.5,45 81.3906,45 c -2.75,0 -4.4375,-1.8281 -5.5625,-3.7187 -1.4062,-2.3907 -2.5312,-6.6094 -2.5312,-7.0313 0,-0.9219 0.9844,-0.9219 1.2031,-0.9219 0.9844,0 1.0469,0.2188 1.5469,2.1094 1.0469,4.0781 2.3906,7.5938 5.125,7.5938 1.8281,0 2.3281,-1.5469 2.3281,-3.4375 0,-0.7813 -0.1406,-1.6875 -0.2187,-2.1094 z M 88.5625,36.5625 c 4.0781,5.4219 7.5938,6.4688 9.8438,6.4688 2.7347,0 5.1247,-2.0313 5.1247,-6.8125 0,-2.8907 -1.547,-10.0625 -3.656,-14.1407 -1.75,-3.4375 -5.2031,-6.8125 -8.7812,-6.8125 -5,0 -6.2657,5.4063 -6.2657,6.1094 0,0.2813 0.1407,0.7813 0.2188,1.0625 l 3.5156,14.125" />
      <path
         inkscape:connector-curvature="0"
         id="path1447-6-5-9"
         style="fill:#000000;fill-opacity:1;fill-rule:nonzero;stroke:none"
         d="m 139.609,41.7656 h 6.891 c 1.406,0 2.328,0 2.328,1.5469 0,0.9844 -0.922,0.9844 -2.187,0.9844 h -6.532 c 1.61,8.9375 2.172,12.1719 2.735,14.2031 0.359,1.5469 1.906,3.0156 3.594,3.0156 0.062,0 1.968,0 3.296,-0.8437 -2.875,-0.9063 -3.093,-3.4375 -3.093,-3.8594 0,-1.5469 1.203,-2.5937 2.812,-2.5937 1.906,0 4.016,1.6093 4.016,4.2812 0,3.2344 -3.453,4.9844 -7.031,4.9844 -3.094,0 -6.547,-1.75 -8.438,-5.2656 -1.406,-2.5938 -1.969,-5.7657 -3.453,-13.9219 H 129 c -1.406,0 -2.328,0 -2.328,-1.5469 0,-0.9844 0.922,-0.9844 2.187,-0.9844 h 5.204 c -0.079,-0.4218 -4.5,-25.7343 -6.188,-33.24997 -0.359,-1.54688 -1.547,-6.89063 -4.922,-6.89063 -0.078,0 -1.765,0 -3.094,0.84375 2.875,0.92188 3.094,3.45313 3.094,3.875 0,1.54688 -1.203,2.59375 -2.812,2.59375 -1.907,0 -4.016,-1.60937 -4.016,-4.28125 0,-3.17187 3.313,-5 6.828,-5 4.5,0 7.594,4.64063 8.438,6.1875 2.531,4.71875 4.14,13.35935 4.281,14.20315 l 3.937,21.7187" />
    </g>
    <path
       style="fill:none;stroke:#000000;stroke-width:0.26458332px;stroke-linecap:butt;stroke-linejoin:miter;stroke-opacity:1"
       d="M 149.55859,95.031448 V 76.787908"
       id="path1454-1-3-9"
       inkscape:connector-curvature="0"
       sodipodi:nodetypes="cc" />
    <path
       style="fill:none;fill-opacity:1;stroke:#000000;stroke-width:0.12952696;stroke-miterlimit:4;stroke-dasharray:none;stroke-dashoffset:0;stroke-opacity:1"
       id="path1458-0-8-0"
       sodipodi:type="arc"
       sodipodi:cx="149.64552"
       sodipodi:cy="75.314346"
       sodipodi:rx="1.4571784"
       sodipodi:ry="1.4571784"
       sodipodi:start="3.1405009"
       sodipodi:end="3.12826"
       d="m 148.18835,75.315937 a 1.4571784,1.4571784 0 0 1 1.45112,-1.458756 1.4571784,1.4571784 0 0 1 1.46319,1.446656 1.4571784,1.4571784 0 0 1 -1.44217,1.467611 1.4571784,1.4571784 0 0 1 -1.47202,-1.437674"
       sodipodi:open="true" />
    <path
       style="fill:none;stroke:#000000;stroke-width:0.26499999;stroke-linecap:butt;stroke-linejoin:miter;stroke-miterlimit:4;stroke-dasharray:none;stroke-opacity:1;marker-start:url(#Arrow1Lstart-7-1-1-3);marker-end:url(#Arrow1Lend-4-9-7-6)"
       d="m 116.41122,100.79676 h 32.90283"
       id="path852-0-9-3-8"
       inkscape:connector-curvature="0"
       sodipodi:nodetypes="cc" />
    <g
       transform="matrix(0.04518976,0,0,-0.04518976,133.49481,103.85902)"
       id="g2572-1-1">
      <path
         inkscape:connector-curvature="0"
         id="path2574-8-3"
         style="fill:#000000;fill-opacity:1;fill-rule:nonzero;stroke:none"
         d="m 12,24.5469 c 3.2813,-1.3906 6.1719,-1.3906 8.5469,-1.3906 2.5781,0 8.0469,0 8.0469,3.0781 0,2.3906 -3.4688,2.6875 -7.25,2.6875 -2.0782,0 -5.5625,-0.2031 -9.2344,-1.8906 -2.28127,1.1875 -3.9844,3.0781 -3.9844,5.7656 0,6.0625 9.75,9.6406 18.6875,9.6406 1.5781,0 5.1563,0 9.1406,-2.7812 1.0938,-0.7969 1.2813,-1 1.9844,-1 1.2813,0 2.6719,1.2968 2.6719,2.6875 C 40.6094,43.2188 34.5625,47 27.7969,47 16.375,47 5.65625,40.3438 5.65625,32.7969 c 0,-4.2813 3.5625,-6.75 3.96875,-7.0625 C 3.76563,22.4688 0.578125,16.9063 0.578125,12.3281 0.578125,5.875 6.25,-0.1875 16.7813,-0.1875 c 13.1093,0 18.6718,8.75 18.6718,10.2344 0,0.5937 -0.5,1 -1.0937,1 -0.5,0 -0.7969,-0.4063 -1,-0.7031 -1.3906,-2.2813 -3.7656,-5.95317 -15.6875,-5.95317 -6.0625,0 -14.50002,1.48437 -14.50002,8.53127 0,3.375 2.78125,8.6406 8.82812,11.625 z m 3.2813,1.2969 c 2.2812,0.7968 4.375,0.8906 6.0625,0.8906 2.4843,0 2.875,-0.0938 4.6718,-0.5938 -1.5,-0.7031 -1.6875,-0.7968 -5.4687,-0.7968 -2.1875,0 -3.375,0 -5.2656,0.5" />
    </g>
    <g
       transform="matrix(0.05787564,0,0,-0.05787564,163.2062,99.068276)"
       id="g2655-6-1">
      <path
         inkscape:connector-curvature="0"
         id="path2657-4-0"
         style="fill:#000000;fill-opacity:1;fill-rule:nonzero;stroke:none"
         d="m 47.4531,38.0469 c 1.2969,0 4.875,0 4.875,3.3906 0,2.375 -2.0937,2.375 -3.875,2.375 H 25.7969 c -15,0 -26.01565,-16.3906 -26.01565,-28.2031 0,-8.75002 5.85938,-15.70315 14.89065,-15.70315 11.7187,0 24.9375,12.01565 24.9375,27.31255 0,1.6875 0,6.4687 -3.0781,10.8281 z M 14.7813,2.09375 c -4.87505,0 -8.8438,3.57813 -8.8438,10.73435 0,2.9688 1.1875,11.125 4.6719,16.9844 4.1719,6.8438 10.125,8.2344 13.5,8.2344 8.3437,0 9.1406,-6.5469 9.1406,-9.625 C 33.25,23.75 31.2656,15.6094 27.8906,10.5313 24.0156,4.67188 18.6563,2.09375 14.7813,2.09375" />
    </g>
    <path
       style="fill:none;stroke:#000000;stroke-width:0.26458332;stroke-linecap:butt;stroke-linejoin:miter;stroke-miterlimit:4;stroke-dasharray:0.26458332, 0.26458332;stroke-dashoffset:0;stroke-opacity:1"
       d="M 149.63973,75.499988 V 118.36529"
       id="path850-2-9-3-3"
       inkscape:connector-curvature="0" />
    <path
       style="fill:none;stroke:#000000;stroke-width:0.26499999;stroke-linecap:butt;stroke-linejoin:miter;stroke-miterlimit:4;stroke-dasharray:1.58999994, 0.26499999;stroke-dashoffset:0;stroke-opacity:1;marker-end:url(#ExperimentalArrow)"
       d="m 150.27972,95.345141 h 13.83429"
       id="path2579"
       inkscape:connector-curvature="0" />
  </g>
</svg>
